<svg width="512" height="512" viewBox="0 0 512 512" fill="none" xmlns="http://www.w3.org/2000/svg">
<g clip-path="url(#clip0_222_2)">
<circle cx="256" cy="256" r="256" fill="white"/>
<path d="M409.585 101.18C414.869 105.094 418 111.357 418 117.946V164.914V337.133C418 365.967 389.949 389.321 355.375 389.321C320.801 389.321 292.75 365.967 292.75 337.133C292.75 308.299 320.801 284.946 355.375 284.946C362.681 284.946 369.727 285.989 376.25 287.946V192.965L209.25 243.065V378.883C209.25 407.717 181.199 431.071 146.625 431.071C112.051 431.071 84 407.717 84 378.883C84 350.049 112.051 326.696 146.625 326.696C153.931 326.696 160.977 327.739 167.5 329.696V227.539V180.571C167.5 171.373 173.567 163.218 182.373 160.544L391.123 97.9186C397.451 96.0268 404.301 97.201 409.585 101.18Z" fill="#221E24"/>
<path d="M379.585 63.145C384.869 67.0591 388 73.3216 388 79.9102V126.879V299.098C388 327.931 359.949 351.285 325.375 351.285C290.801 351.285 262.75 327.931 262.75 299.098C262.75 270.264 290.801 246.91 325.375 246.91C332.681 246.91 339.727 247.954 346.25 249.911V154.93L179.25 205.03V340.848C179.25 369.681 151.199 393.035 116.625 393.035C82.0508 393.035 54 369.681 54 340.848C54 312.014 82.0508 288.66 116.625 288.66C123.931 288.66 130.977 289.704 137.5 291.661V189.504V142.535C137.5 133.337 143.567 125.183 152.373 122.508L361.123 59.8833C367.451 57.9915 374.301 59.1657 379.585 63.145Z" fill="#C173FF" fill-opacity="0.8"/>
</g>
<defs>
<clipPath id="clip0_222_2">
<rect width="512" height="512" fill="white"/>
</clipPath>
</defs>
</svg>
